# xmcd
#
# Track frame offsets:
#  150
#  17587
#  41340
#  49580
#  68905
#  82382
#  93460
#  107860
#  121690
#  133682
#  153737
#
# Disc length: 2212 seconds
#
# Revision: 0
# Processed by: cddbd v1.5.1PL2 Copyright (c) Steve Scherf et al.
# Submitted via: Collectorz.com_Music_Collector 6.9
#
DISCID=9008a20b
DTITLE=Vern Gosdin - Jerry Lee Lewis - Roger Miller - Legends Of The Silver Eagle - 11 Live Country Hits From The Silver Eagle Cross Country Radio Show
DYEAR=1997
DGENRE=Country
TTITLE0=Honey Don't - Carl Perkins
TTITLE1=Blue Suede Shoes - Carl Perkins
TTITLE2=Great Balls Of Fire - Jerry Lee Lewis
TTITLE3=Georgia On My Mind - Jerry Lee Lewis
TTITLE4=Today My World Slipped Away - Vern Gosdin
TTITLE5=Till The End - Vern Gosdin
TTITLE6=Oklahoma Crude - Corbin-Hanner Band
TTITLE7=Lord, I Hope This Day Is Good - Corbin-Hanner Band
TTITLE8=Dang Me - Roger Miller
TTITLE9=Old Friends - Roger Miller
TTITLE10=King Of The Road - Roger Miller
EXTD=
EXTT0=
EXTT1=
EXTT2=
EXTT3=
EXTT4=
EXTT5=
EXTT6=
EXTT7=
EXTT8=
EXTT9=
EXTT10=
PLAYORDER=
